<?xml version="1.0" encoding="UTF-8" standalone="no"?>
<!-- Created with Inkscape (http://www.inkscape.org/) -->

<svg
   width="500"
   height="500"
   viewBox="0 0 500 500"
   inkscape:version="1.4.3 (1:1.4.3+202512261034+0d15f75042)"
   sodipodi:docname="documentation.svg"
   version="1.1"
   id="svg1"
   xmlns:inkscape="http://www.inkscape.org/namespaces/inkscape"
   xmlns:sodipodi="http://sodipodi.sourceforge.net/DTD/sodipodi-0.dtd"
   xmlns="http://www.w3.org/2000/svg"
   xmlns:svg="http://www.w3.org/2000/svg">
  <sodipodi:namedview
     id="namedview1"
     pagecolor="#ffffff"
     bordercolor="#000000"
     borderopacity="0.25"
     inkscape:showpageshadow="2"
     inkscape:pageopacity="0.0"
     inkscape:pagecheckerboard="0"
     inkscape:deskcolor="#d1d1d1"
     inkscape:document-units="px"
     inkscape:zoom="0.74386223"
     inkscape:cx="169.3862"
     inkscape:cy="174.09138"
     inkscape:window-width="2560"
     inkscape:window-height="1043"
     inkscape:window-x="0"
     inkscape:window-y="0"
     inkscape:window-maximized="1" />
  <defs
     id="defs1" />
  <g
     inkscape:label="Capa 1"
     inkscape:groupmode="layer"
     id="layer1" />
  <path
     d="m 154.36,238.75 c -9.32,0 -16.87,7.56 -16.87,16.88 0,9.32 7.56,16.87 16.87,16.87 9.32,0 16.87,-7.56 16.87,-16.87 0,-9.32 -7.56,-16.88 -16.87,-16.88 z m -16.87,84.38 c 0,-9.32 7.56,-16.88 16.87,-16.88 9.32,0 16.87,7.56 16.87,16.88 0,9.32 -7.56,16.87 -16.87,16.87 -9.32,0 -16.87,-7.56 -16.87,-16.87 z m 67.5,-67.5 c 0,-9.32 7.56,-16.88 16.87,-16.88 h 68.71 c 9.32,0 16.87,7.56 16.87,16.88 0,9.32 -7.56,16.87 -16.87,16.87 h -68.71 c -9.32,0 -16.87,-7.56 -16.87,-16.87 z m 16.87,50.62 c -9.32,0 -16.87,7.56 -16.87,16.88 0,9.32 7.56,16.87 16.87,16.87 h 68.71 c 9.32,0 16.87,-7.56 16.87,-16.87 0,-9.32 -7.56,-16.88 -16.87,-16.88 z M 120.61,25 C 92.66,25 69.99,47.67 69.99,75.63 v 292.5 c 0,27.96 22.67,50.62 50.63,50.62 h 202.5 c 27.96,0 50.62,-22.67 50.62,-50.62 v -188.58 c 0,-13.43 -5.33,-26.3 -14.83,-35.8 L 254.99,39.83 C 245.49,30.33 232.62,25 219.19,25 Z m -16.88,50.63 c 0,-9.32 7.56,-16.88 16.88,-16.88 h 95.71 v 73.07 c 0,27.96 22.67,50.63 50.62,50.63 h 73.04 v 185.68 c 0,9.32 -7.56,16.87 -16.88,16.87 h -202.5 c -9.32,0 -16.88,-7.56 -16.88,-16.87 z m 146.34,56.19 v -49.17 l 66.05,66.05 h -49.17 c -9.32,0 -16.87,-7.56 -16.87,-16.87 z M 176.88,475 c -22.04,0 -40.79,-14.09 -47.74,-33.75 h 193.99 c 40.39,0 73.13,-32.74 73.13,-73.12 V 181.08 l 18.92,18.92 c 9.49,9.49 14.83,22.37 14.83,35.8 V 368.13 C 430.01,427.15 382.16,475 323.14,475 Z"
     id="path1" />
</svg>
